<svg xmlns="http://www.w3.org/2000/svg" width="16" height="16" viewBox="0 0 16 16">
  <g fill="none" fill-rule="evenodd" transform="translate(1 2)">
    <path fill="#424242" d="M0.01087,0.5 L0.51087,0 L5.50713,0 L5.86068,0.14645 L6.71349,0.99925 L13.5011,0.99925 L14.0011,1.49925 L14.0011,6.99512 L13.9903,7.00599 L13.9903,11.5021 L13.4903,12.0021 L0.5,12.0021 L0,11.5021 L0,4.50735 L0.01087,4.49648 L0.01087,0.5 Z M13.0011,1.99925 L13.0011,3.00311 L6.5005,3.00311 L6.14695,3.14956 L5.28915,4.00735 L1.01087,4.00735 L1.01087,1 L5.30002,1 L6.15283,1.8528 L6.50638,1.99925 L13.0011,1.99925 Z M5.49626,5.00735 L1.01087,5.00735 L1.01087,5.49588 L0.99963,5.49588 L0.99963,9.4929 L1,9.4929 L1,11.0021 L12.9903,11.0021 L12.9903,9.4929 L12.9906,9.4929 L12.9906,5.49588 L12.9903,5.49588 L12.9903,4.00311 L6.70761,4.00311 L5.84981,4.8609 L5.49626,5.00735 Z"/>
    <path stroke="#424242" stroke-linecap="square" d="M5.5,7.5 L4.5,8.5 M5.5,9.5 L4.5,8.5"/>
    <path stroke="#424242" stroke-linecap="square" d="M9.5,7.5 L8.5,8.5 M9.5,9.5 L8.5,8.5" transform="matrix(-1 0 0 1 18 0)"/>
  </g>
</svg>
